<svg xmlns="http://www.w3.org/2000/svg" viewBox="0 0 64 64" fill="none">
  <circle cx="28" cy="28" r="20" stroke="#5f27cd" stroke-width="5.5" fill="#f3f0ff" />
  <rect x="18" y="28" width="4.5" height="10" rx="2" fill="#5f27cd" />
  <rect x="25" y="22" width="4.5" height="16" rx="2" fill="#5f27cd" />
  <rect x="32" y="16" width="4.5" height="22" rx="2" fill="#5f27cd" />
  <path d="M38 18c0-2 1-3 3-3c-2 0-3-1-3-3c0 2-1 3-3 3c2 0 3 1 3 3z" fill="#9b5de5" />
  <path d="M43 12c0-1 .5-1.5 1.5-1.5c-1 0-1.5-.5-1.5-1.5c0 1-.5 1.5-1.5 1.5c1 0 1.5.5 1.5 1.5z" fill="#9b5de5" />
  <line x1="42" y1="42" x2="54" y2="54" stroke="#5f27cd" stroke-width="6" stroke-linecap="round" />
</svg>
